<?xml version="1.0" encoding="UTF-8" standalone="no"?>
<!-- Created with Inkscape (http://www.inkscape.org/) -->

<svg
   width="256"
   height="256"
   viewBox="0 0 67.733335 67.733333"
   version="1.1"
   id="svg7448"
   inkscape:version="1.1 (1:1.1+202105261517+ce6663b3b7)"
   sodipodi:docname="epoptes-client-register.svg"
   inkscape:export-filename="/home/lliurex/git/epoptes-client-register/epoptes-client-register.install-files/usr/share/epoptes-client-register/rsrc/home-eraser.png"
   inkscape:export-xdpi="96"
   inkscape:export-ydpi="96"
   xmlns:inkscape="http://www.inkscape.org/namespaces/inkscape"
   xmlns:sodipodi="http://sodipodi.sourceforge.net/DTD/sodipodi-0.dtd"
   xmlns:xlink="http://www.w3.org/1999/xlink"
   xmlns="http://www.w3.org/2000/svg"
   xmlns:svg="http://www.w3.org/2000/svg"
   xmlns:rdf="http://www.w3.org/1999/02/22-rdf-syntax-ns#"
   xmlns:cc="http://creativecommons.org/ns#"
   xmlns:dc="http://purl.org/dc/elements/1.1/">
  <defs
     id="defs7442">
    <linearGradient
       gradientTransform="matrix(0.19734331,0,0,-0.19823545,166.75149,195.75987)"
       y2="666.56842"
       x2="-460.2334"
       y1="370.53909"
       x1="-460.2334"
       gradientUnits="userSpaceOnUse"
       id="rect3438-6-0-6-7-2_60_-80">
      <stop
         id="stop29185"
         style="stop-color:#000000"
         offset="0" />
      <stop
         id="stop29187"
         style="stop-color:#000000;stop-opacity:0.5882"
         offset="1" />
    </linearGradient>
    <linearGradient
       gradientTransform="matrix(0.19561848,0,0,-0.19662959,164.39189,195.04925)"
       y2="511.97165"
       x2="-454.7359"
       y1="394.84149"
       x1="-456.47128"
       gradientUnits="userSpaceOnUse"
       id="rect3438-6-0-1-1_60_-262">
      <stop
         id="stop29191"
         style="stop-color:#000000"
         offset="0" />
      <stop
         id="stop29193"
         style="stop-color:#000000;stop-opacity:0.5882"
         offset="1" />
    </linearGradient>
    <linearGradient
       gradientTransform="matrix(0.19817598,0,0,-0.19817598,-75.834945,48.799836)"
       y2="-366.80859"
       x2="765.62701"
       y1="-74.489304"
       x1="765.62701"
       gradientUnits="userSpaceOnUse"
       id="XMLID_140_-06">
      <stop
         id="stop29198"
         style="stop-color:#2f343f;stop-opacity:1"
         offset="0" />
      <stop
         id="stop29200"
         style="stop-color:#2b303a;stop-opacity:1"
         offset="0.3475" />
      <stop
         id="stop29202"
         style="stop-color:#232730;stop-opacity:1"
         offset="0.6063" />
      <stop
         id="stop29204"
         style="stop-color:#1b1e25;stop-opacity:1"
         offset="0.8413" />
      <stop
         id="stop29206"
         style="stop-color:#1b1e25;stop-opacity:1"
         offset="1" />
    </linearGradient>
    <linearGradient
       id="linearGradient7404"
       gradientUnits="userSpaceOnUse"
       x1="-460.2334"
       y1="370.53909"
       x2="-460.2334"
       y2="666.56842"
       gradientTransform="matrix(0.9954,0,0,-0.9999,607.6064,666.5718)">
      <stop
         offset="0"
         style="stop-color:#000000"
         id="stop7400" />
      <stop
         offset="1"
         style="stop-color:#000000;stop-opacity:0.5882"
         id="stop7402" />
    </linearGradient>
    <linearGradient
       id="linearGradient7411"
       gradientUnits="userSpaceOnUse"
       x1="-452.13281"
       y1="371.53421"
       x2="-452.13281"
       y2="668.2168"
       gradientTransform="matrix(0.9867,0,0,-0.9918,595.6101,662.6824)">
      <stop
         offset="0"
         style="stop-color:#000000"
         id="stop7407" />
      <stop
         offset="1"
         style="stop-color:#000000;stop-opacity:0.5882"
         id="stop7409" />
    </linearGradient>
    <linearGradient
       gradientTransform="matrix(0.9996,0,0,-0.9996,-616.0945,-74.9999)"
       y2="-366.80859"
       x2="765.62701"
       y1="-74.489304"
       x1="765.62701"
       gradientUnits="userSpaceOnUse"
       id="linearGradient7424">
      <stop
         id="stop7414"
         style="stop-color:#006cf9;stop-opacity:1"
         offset="0" />
      <stop
         id="stop7416"
         style="stop-color:#0053c2;stop-opacity:1"
         offset="0.3475" />
      <stop
         id="stop7418"
         style="stop-color:#0047a6;stop-opacity:1"
         offset="0.6063" />
      <stop
         id="stop7420"
         style="stop-color:#003884;stop-opacity:1"
         offset="0.8413" />
      <stop
         id="stop7422"
         style="stop-color:#003580;stop-opacity:1"
         offset="1" />
    </linearGradient>
    <clipPath
       clipPathUnits="userSpaceOnUse"
       id="clipPath15981">
      <path
         inkscape:connector-curvature="0"
         id="path15983"
         enable-background="new    "
         d="m 36.325495,267.93974 15.309669,0 c 3.658754,0 6.62482,2.99593 6.62482,6.69164 l 0,15.61398 c 0,3.69571 -2.966066,6.69174 -6.62482,6.69174 l -15.309669,0 c -3.658755,0 -6.624723,-2.99603 -6.624723,-6.69174 l 0,-15.61389 c 9.8e-5,-3.6957 2.966067,-6.69173 6.624723,-6.69173 z"
         style="opacity:0.92699998;fill:#ffffff;stroke-width:0.19825529" />
    </clipPath>
    <linearGradient
       gradientTransform="matrix(0.19734331,0,0,-0.19823545,120.49401,189.82319)"
       y2="666.56842"
       x2="-460.2334"
       y1="370.53909"
       x1="-460.2334"
       gradientUnits="userSpaceOnUse"
       id="rect3438-6-0-6-7-2_60_-80-0">
      <stop
         id="stop29185-6"
         style="stop-color:#000000"
         offset="0" />
      <stop
         id="stop29187-1"
         style="stop-color:#000000;stop-opacity:0.5882"
         offset="1" />
    </linearGradient>
    <clipPath
       clipPathUnits="userSpaceOnUse"
       id="clipPath16133">
      <path
         inkscape:connector-curvature="0"
         id="path16135"
         enable-background="new    "
         d="m 60.60117,64.027702 30.605204,0 c 7.305635,0 13.228026,5.975816 13.228026,13.347157 l 0,31.143121 c 0,7.37132 -5.922585,13.34714 -13.228026,13.34714 l -30.605204,0 c -7.30583,0 -13.22802,-5.97582 -13.22802,-13.34714 l 0,-31.143121 c -1.96e-4,-7.371535 5.92219,-13.347157 13.22802,-13.347157 z"
         style="opacity:1;fill:url(#linearGradient16137);fill-opacity:1;stroke-width:0.19825529" />
    </clipPath>
    <filter
       color-interpolation-filters="sRGB"
       inkscape:collect="always"
       id="filter6242"
       x="-0.065210253"
       width="1.1304205"
       y="-0.36162049"
       height="1.723241">
      <feGaussianBlur
         inkscape:collect="always"
         stdDeviation="7.7691901"
         id="feGaussianBlur6244" />
    </filter>
    <linearGradient
       inkscape:collect="always"
       xlink:href="#linearGradient5179"
       id="linearGradient3346"
       gradientUnits="userSpaceOnUse"
       gradientTransform="matrix(0.93999937,0,0,0.94245141,30.779278,76.878373)"
       x1="24.347979"
       y1="1010.9832"
       x2="23.774426"
       y2="1046.8436" />
    <linearGradient
       inkscape:collect="always"
       id="linearGradient5179">
      <stop
         style="stop-color:#cacaca;stop-opacity:1"
         offset="0"
         id="stop5181" />
      <stop
         style="stop-color:#919192;stop-opacity:1"
         offset="1"
         id="stop5183" />
    </linearGradient>
    <linearGradient
       inkscape:collect="always"
       xlink:href="#linearGradient5511-9-6-4"
       id="linearGradient3348"
       gradientUnits="userSpaceOnUse"
       gradientTransform="matrix(0.04012023,0,0,0.04687433,95.890679,1124.2726)"
       x1="-1103.4307"
       y1="-1831.9508"
       x2="-1103.4307"
       y2="-1262.8293" />
    <linearGradient
       inkscape:collect="always"
       id="linearGradient5511-9-6-4">
      <stop
         style="stop-color:#102001;stop-opacity:1"
         offset="0"
         id="stop5513-3-3-1" />
      <stop
         style="stop-color:#3b7505;stop-opacity:1"
         offset="1"
         id="stop5515-9-0-9" />
    </linearGradient>
    <linearGradient
       inkscape:collect="always"
       xlink:href="#linearGradient5256-1-7"
       id="linearGradient3350"
       gradientUnits="userSpaceOnUse"
       gradientTransform="matrix(0.04011194,0,0,0.06307778,101.63963,1130.0308)"
       x1="-707.19696"
       y1="-2120.2222"
       x2="-1028.4927"
       y2="-1298.6388" />
    <linearGradient
       inkscape:collect="always"
       id="linearGradient5256-1-7">
      <stop
         style="stop-color:#eeeeec;stop-opacity:1;"
         offset="0"
         id="stop5258-5-5" />
      <stop
         style="stop-color:#eeeeec;stop-opacity:0;"
         offset="1"
         id="stop5260-6-5" />
    </linearGradient>
    <filter
       color-interpolation-filters="sRGB"
       inkscape:collect="always"
       id="filter4033-5-7"
       x="-0.043922977"
       y="-0.088008079"
       width="1.087846"
       height="1.1776884">
      <feGaussianBlur
         inkscape:collect="always"
         stdDeviation="15.273113"
         id="feGaussianBlur4035-00-4" />
    </filter>
    <filter
       color-interpolation-filters="sRGB"
       inkscape:collect="always"
       id="filter4033-0-3-2"
       x="-0.043922977"
       y="-0.088063118"
       width="1.087846"
       height="1.177809">
      <feGaussianBlur
         inkscape:collect="always"
         stdDeviation="15.273113"
         id="feGaussianBlur4035-0-4-9" />
    </filter>
    <linearGradient
       inkscape:collect="always"
       xlink:href="#linearGradient5256-1-7"
       id="linearGradient3352"
       gradientUnits="userSpaceOnUse"
       gradientTransform="matrix(0.93999937,0,0,0.94245141,30.779278,76.878373)"
       x1="24.04421"
       y1="1046.0331"
       x2="23.56295"
       y2="979.51526" />
    <filter
       color-interpolation-filters="sRGB"
       inkscape:collect="always"
       id="filter4945-0-3-3"
       x="-0.018117441"
       y="-0.018044091"
       width="1.0362349"
       height="1.0360882">
      <feGaussianBlur
         inkscape:collect="always"
         stdDeviation="8.2070394"
         id="feGaussianBlur4947-0-0-1" />
    </filter>
    <linearGradient
       inkscape:collect="always"
       xlink:href="#linearGradient4058-1-8-2-8"
       id="linearGradient3354"
       gradientUnits="userSpaceOnUse"
       gradientTransform="matrix(0.0232559,-0.00177606,0.00176677,0.02317962,53.252698,1065.4875)"
       x1="-933.45996"
       y1="-511.0563"
       x2="182.15898"
       y2="-511.0563" />
    <linearGradient
       id="linearGradient4058-1-8-2-8">
      <stop
         style="stop-color:#75a125;stop-opacity:1;"
         offset="0"
         id="stop4060-41-2-1-2" />
      <stop
         style="stop-color:#353520;stop-opacity:1"
         offset="1"
         id="stop4062-0-13-7-5" />
    </linearGradient>
    <filter
       color-interpolation-filters="sRGB"
       inkscape:collect="always"
       id="filter4763-7-2-2"
       x="-0.063270971"
       y="-0.061396466"
       width="1.1265419"
       height="1.1227929">
      <feGaussianBlur
         inkscape:collect="always"
         stdDeviation="27.803607"
         id="feGaussianBlur4765-5-2-9" />
    </filter>
    <radialGradient
       inkscape:collect="always"
       xlink:href="#linearGradient5276-4-6"
       id="radialGradient3356"
       gradientUnits="userSpaceOnUse"
       gradientTransform="matrix(-0.21927592,0.09809675,-0.08057596,-0.18008818,98.327889,1001.4268)"
       cx="271.21085"
       cy="-95.173187"
       fx="271.21085"
       fy="-95.173187"
       r="65.300873" />
    <linearGradient
       id="linearGradient5276-4-6">
      <stop
         id="stop5278-1-9"
         offset="0"
         style="stop-color:#ffffff;stop-opacity:0.54929578;" />
      <stop
         id="stop5280-65-6"
         offset="1"
         style="stop-color:#ffffff;stop-opacity:0;" />
    </linearGradient>
    <linearGradient
       inkscape:collect="always"
       xlink:href="#linearGradient3084-7-4"
       id="linearGradient3375"
       gradientUnits="userSpaceOnUse"
       gradientTransform="matrix(0.139375,0,0,0.139375,132.98296,224.74104)"
       x1="-610.71429"
       y1="409.50504"
       x2="-548.57141"
       y2="470.93362" />
    <linearGradient
       id="linearGradient3084-7-4">
      <stop
         style="stop-color:#57b275;stop-opacity:1"
         offset="0"
         id="stop3086-9-1" />
      <stop
         style="stop-color:#1c370f;stop-opacity:1"
         offset="1"
         id="stop3088-5-6" />
    </linearGradient>
    <linearGradient
       inkscape:collect="always"
       xlink:href="#linearGradient3084-7-4"
       id="linearGradient3360"
       gradientUnits="userSpaceOnUse"
       gradientTransform="matrix(1.477912,0,0,1.477912,1224.2287,-281.28058)"
       x1="-610.71429"
       y1="409.50504"
       x2="-548.57141"
       y2="470.93362" />
  </defs>
  <sodipodi:namedview
     id="base"
     pagecolor="#ffffff"
     bordercolor="#666666"
     borderopacity="1.0"
     inkscape:pageopacity="0.0"
     inkscape:pageshadow="2"
     inkscape:zoom="1.1677838"
     inkscape:cx="-292.43427"
     inkscape:cy="182.39678"
     inkscape:document-units="mm"
     inkscape:current-layer="layer1"
     showgrid="false"
     fit-margin-top="0"
     fit-margin-left="0"
     fit-margin-right="0"
     fit-margin-bottom="0"
     inkscape:window-width="1920"
     inkscape:window-height="901"
     inkscape:window-x="0"
     inkscape:window-y="0"
     inkscape:window-maximized="1"
     units="px"
     inkscape:pagecheckerboard="0" />
  <metadata
     id="metadata7445">
    <rdf:RDF>
      <cc:Work
         rdf:about="">
        <dc:format>image/svg+xml</dc:format>
        <dc:type
           rdf:resource="http://purl.org/dc/dcmitype/StillImage" />
        <dc:title />
      </cc:Work>
    </rdf:RDF>
  </metadata>
  <g
     inkscape:label="Capa 1"
     inkscape:groupmode="layer"
     id="layer1"
     transform="translate(-42.060823,-59.097487)">
    <path
       inkscape:connector-curvature="0"
       id="rect3438-6-0-6-7-2_30_"
       enable-background="new    "
       d="M 60.383879,63.622374 H 91.4711 c 7.420695,0 13.43636,6.063241 13.43636,13.542422 v 31.598714 c 0,7.47918 -6.015863,13.54242 -13.43636,13.54242 H 60.383879 c -7.420893,0 -13.436355,-6.06324 -13.436355,-13.54242 V 77.164796 c -1.98e-4,-7.479379 6.015462,-13.542422 13.436355,-13.542422 z"
       style="opacity:0.45;fill:url(#rect3438-6-0-6-7-2_60_-80);stroke-width:0.19825529" />
    <path
       inkscape:connector-curvature="0"
       id="rect3438-6-0-6-7-2_30_-5"
       enable-background="new    "
       d="m 60.624885,64.045445 h 30.605204 c 7.305635,0 13.228021,5.975816 13.228021,13.347157 v 31.143118 c 0,7.37132 -5.92258,13.34714 -13.228021,13.34714 H 60.624885 c -7.30583,0 -13.22802,-5.97582 -13.22802,-13.34714 V 77.392602 c -1.96e-4,-7.371535 5.92219,-13.347157 13.22802,-13.347157 z"
       style="opacity:1;fill:#00627c;fill-opacity:0.73333335;stroke-width:0.19825529" />
    <g
       id="g4051"
       transform="matrix(2.6060527,0,0,2.6060527,-48.498151,-640.89112)">
      <g
         id="g5560"
         transform="matrix(0.16763252,0,0,0.16763252,43.214099,101.36998)">
        <g
           id="g5604">
          <g
             id="g6246">
            <rect
               ry="3.4988561"
               rx="3.1797152"
               transform="matrix(0.15218985,0,0,0.14521929,45.943,1069.1886)"
               y="-66.65625"
               x="-89.0625"
               height="51.5625"
               width="285.9375"
               id="rect5579"
               style="opacity:0.686131;fill:#2e3436;fill-opacity:1;stroke:none;filter:url(#filter6242)" />
            <g
               id="g6002">
              <rect
                 style="fill:url(#linearGradient3346);fill-opacity:1;stroke:#555753;stroke-width:0.941225;stroke-miterlimit:4;stroke-dasharray:none"
                 id="rect3876-97-9"
                 width="39.113815"
                 height="33.915604"
                 x="34.670734"
                 y="1029.6213"
                 ry="0.72353297"
                 rx="0.61927938" />
              <rect
                 rx="0.52994585"
                 ry="0.58465642"
                 y="1033.036"
                 x="37.153633"
                 height="27.405773"
                 width="33.471485"
                 id="rect3876-5-4-1-5-2"
                 style="fill:#2e3436;fill-opacity:1" />
              <rect
                 style="fill:url(#linearGradient3348);fill-opacity:1;stroke:#4e9a06;stroke-width:0.166882"
                 id="rect3876-5-4-1-4-0-6"
                 width="33.471485"
                 height="27.405773"
                 x="37.238316"
                 y="1032.9966"
                 ry="0.58465642"
                 rx="0.52994585" />
              <path
                 style="opacity:0.738971;fill:none;stroke:#8ae234;stroke-width:0.941225;stroke-linecap:butt;stroke-linejoin:miter;stroke-miterlimit:4;stroke-dasharray:none;stroke-opacity:1"
                 d="m 37.114987,1040.288 c 9.198053,0 9.198053,0 9.198053,0 l 2.720532,-5.5666 v 10.3978 l 2.405114,-4.8312 h 8.703589 l 2.665791,-5.572 -0.321611,10.4385 2.815946,-4.8665 h 5.388688"
                 id="path3989-7-7-2"
                 inkscape:connector-curvature="0"
                 sodipodi:nodetypes="cccccccccc" />
              <path
                 sodipodi:nodetypes="ssccccscccssc"
                 inkscape:connector-curvature="0"
                 id="rect3876-5-4-1-4-5-0"
                 d="m 37.801204,1032.8391 c -0.293528,0 -0.525924,0.3511 -0.525924,0.787 v 27.0114 l 10.180059,0.034 c 3.902813,-9.5258 8.024038,-18.7839 12.476428,-27.9036 l 3.671072,0.071 z m 26.353598,0 -11.242328,27.7915 17.824218,-0.1545 v -26.85 c 0,-0.4359 -0.232397,-0.787 -0.525926,-0.787 z"
                 style="fill:url(#linearGradient3350);fill-opacity:1" />
              <path
                 style="opacity:0.738971;fill:none;stroke:#8ae234;stroke-width:0.941225;stroke-linecap:butt;stroke-linejoin:miter;stroke-miterlimit:4;stroke-dasharray:none;stroke-opacity:1"
                 d="m 37.391193,1054.2496 c 9.083441,0 9.083441,0 9.083441,0 l 2.686632,-5.5667 v 10.398 l 2.375141,-4.8313 h 8.59514 l 2.632572,-5.5721 -0.317604,10.4387 2.780859,-4.8666 h 5.488365"
                 id="path3989-7-6-1-0"
                 inkscape:connector-curvature="0"
                 sodipodi:nodetypes="cccccccccc" />
              <path
                 transform="matrix(0.04023308,0,0,0.02256986,62.141947,1063.5894)"
                 style="fill:none;stroke:#8ae234;stroke-width:31.2347;stroke-linecap:butt;stroke-linejoin:miter;stroke-miterlimit:4;stroke-dasharray:none;stroke-opacity:1;filter:url(#filter4033-5-7)"
                 d="m -626.3317,-1031.6875 c 228.61921,0 228.61921,0 228.61921,0 l 67.61932,-246.6391 v 460.7016 l 59.77949,-214.0625 h 216.32922 l 66.25868,-246.875 -7.99368,462.5 69.99083,-215.625 h 133.93671"
                 id="path3989-3-3"
                 inkscape:connector-curvature="0"
                 sodipodi:nodetypes="cccccccccc" />
              <path
                 transform="matrix(0.03973173,0,0,0.02256986,62.103995,1077.5511)"
                 style="fill:none;stroke:#8ae234;stroke-width:31.4311;stroke-linecap:butt;stroke-linejoin:miter;stroke-miterlimit:4;stroke-dasharray:none;stroke-opacity:1;filter:url(#filter4033-0-3-2)"
                 d="m -626.3317,-1031.6875 c 228.61921,0 228.61921,0 228.61921,0 l 67.61932,-246.6391 v 460.7016 l 59.77949,-214.0625 h 216.32922 l 66.25868,-246.875 -7.99368,462.5 69.99083,-215.625 h 133.93671"
                 id="path3989-9-2-5"
                 inkscape:connector-curvature="0"
                 sodipodi:nodetypes="cccccccccc" />
              <rect
                 style="opacity:0.646;fill:none;stroke:url(#linearGradient3352);stroke-width:0.893553;stroke-miterlimit:4;stroke-dasharray:none"
                 id="rect3876-97-9-8"
                 width="37.262341"
                 height="32.085896"
                 x="35.530598"
                 y="1030.5143"
                 ry="0.68449914"
                 rx="0.58996534" />
              <g
                 id="g7278"
                 transform="matrix(1.0631289,0,0,1.0631289,-2.3866463,-66.682579)">
                <circle
                   clip-path="none"
                   id="path2996-1-8-0-8-9"
                   style="fill:#73d216;fill-opacity:1;stroke:#203f02;stroke-width:8.16855;stroke-miterlimit:4;stroke-dasharray:none;stroke-opacity:1"
                   transform="matrix(0.12242068,0,0,0.12242068,22.959972,1037.2235)"
                   cx="170.28572"
                   cy="139.42857"
                   r="110.28571" />
                <path
                   transform="matrix(0.02384177,0,0,0.02384177,93.470342,1062.2928)"
                   inkscape:connector-curvature="0"
                   id="path4543-8-5-4"
                   d="m -2079.3319,-880.08673 c -300.2157,0 -543.6019,244.37567 -543.6019,545.81176 0,102.25077 28.0225,197.93538 76.7494,279.741649 l 387.3899,-215.292629 -431.3293,57.05822 444.1669,-82.78739 -435.5498,-77.74249 423.2146,22.70223 -418.8433,-197.35793 445.624,175.28628 -313.3034,-281.65872 336.7678,290.33603 -246.2513,-409.16955 257.2802,395.22033 -72.9812,-460.65315 100.4903,368.78485 40.9247,-365.02635 -25.3487,385.53407 232.9615,-347.94936 -182.0883,425.84317 322.1968,-325.52457 -305.4401,319.36974 369.7287,-160.65604 -360.2575,204.01724 433.3642,-48.28005 -421.9836,54.25834 411.3316,97.49334 -424.119,-48.75925 366.0608,223.414975 -391.937,-181.138415 312.399,267.305936 -333.8537,-265.918616 212.562,377.43689 c 165.4881,-93.565249 277.2525,-271.60954 277.2525,-475.88878 0,-301.43609 -243.3611,-545.81176 -543.5768,-545.81176 z m 25.3989,430.78721 -7.1097,10.61954 5.1753,18.94378 z m -7.1097,10.61954 -8.4663,-31.12726 -5.9038,52.59351 z m -86.2708,163.5064 -398.8458,220.665529 c 82.1986,137.981185 223.3462,236.465521 388.5204,260.394341 l 46.6777,-416.58559 -201.6336,359.77961 182.9173,-357.28241 -300.918,276.790494 z m 108.7555,53.67813 72.9057,409.01817 -114.9859,-392.01674 -76.9505,410.38031 c 25.5556,3.69992 51.6809,5.62514 78.2568,5.62514 96.6384,0 187.3857,-25.32752 266.0228,-69.72102 z"
                   style="opacity:0.805147;fill:#3d7831;fill-opacity:1;stroke:#9ee32a;stroke-width:0;stroke-linejoin:round;stroke-miterlimit:4;stroke-dasharray:none;stroke-opacity:1;filter:url(#filter4945-0-3-3)" />
                <path
                   inkscape:connector-curvature="0"
                   id="path4543-7-7-5-0"
                   d="m 42.64968,1041.6572 c -6.981787,0.5332 -12.210197,6.63 -11.677629,13.6172 0.180654,2.3701 1.001395,4.5383 2.279116,6.348 l 8.628729,-5.6785 -9.930143,2.0887 10.183235,-2.7079 -10.266456,-1.0284 9.882347,-0.2255 -10.089265,-3.8308 10.673078,3.2717 -7.783779,-5.9723 8.344797,6.1317 -6.449705,-9.047 6.681545,8.7041 -2.51111,-10.5481 2.98855,8.3698 0.306822,-8.5339 0.09164,8.9816 4.802983,-8.4791 -3.48226,10.1943 6.917849,-8.1178 -6.539031,7.9453 8.314531,-4.3806 -8.01766,5.3689 9.992974,-1.8888 -9.717747,2.0072 9.738135,1.5293 -9.949416,-0.377 8.907797,4.5285 -9.434879,-3.5026 7.737389,5.6412 -8.233885,-5.5709 5.610164,8.3713 c 3.683267,-2.4627 5.967886,-6.7882 5.606971,-11.5233 -0.532568,-6.9872 -6.623906,-12.2195 -13.605691,-11.6863 z m 1.351776,9.9404 -0.146579,0.2587 0.153824,0.43 -0.0072,-0.6887 z m -0.146579,0.2587 -0.251887,-0.7064 -0.04438,1.2296 0.296264,-0.5232 z m -1.717429,3.9433 -8.885653,5.8233 c 2.155384,3.0524 5.611897,5.0845 9.495448,5.3458 l 0.349522,-9.7392 -4.053523,8.6977 3.622671,-8.6066 -6.509094,6.9504 z m 2.624045,1.0511 2.418129,9.3514 -3.366705,-8.8826 -1.064505,9.6491 c 0.600856,0.04 1.211824,0.039 1.829871,-0.01 2.247413,-0.1716 4.313076,-0.9199 6.063418,-2.0886 l -5.880208,-8.0207 z"
                   style="opacity:0.805147;fill:url(#linearGradient3354);fill-opacity:1;stroke:#9ee32a;stroke-width:0;stroke-linejoin:round;stroke-miterlimit:4;stroke-dasharray:none;stroke-opacity:1" />
                <path
                   inkscape:transform-center-y="-37.171462"
                   inkscape:transform-center-x="-45.899656"
                   transform="matrix(0.00985057,0,0,0.00985057,57.214143,1067.0834)"
                   inkscape:randomized="0.05"
                   inkscape:rounded="0"
                   inkscape:flatsided="false"
                   sodipodi:arg2="0.7725099"
                   sodipodi:arg1="0.76688176"
                   sodipodi:r2="300.39145"
                   sodipodi:r1="1012.6736"
                   sodipodi:cy="-1308.4738"
                   sodipodi:cx="-1343.5029"
                   sodipodi:sides="20"
                   id="path4056-53-0-9"
                   style="fill:#c17d11;fill-opacity:1;stroke:#9ee32a;stroke-width:0;stroke-linejoin:round;stroke-miterlimit:4;stroke-dasharray:none;stroke-opacity:1"
                   sodipodi:type="star"
                   d="m -618.70858,-655.28133 -550.84692,-394.51597 329.87683,622.17986 -408.73023,-657.17506 112.9252,730.87491 -117.0001,-708.16991 -245.4653,745.26114 147.5705,-667.31586 -439.6466,556.65403 298.9959,-638.95571 -521.6413,484.84758 426.2712,-521.07098 -688.9726,310.56772 641.3746,-414.46672 -679.5997,86.3862 686.9702,-143.6873 -670.7484,-163.5828 624.7435,34.6902 -616.474,-369.0525 697.9417,359.144 -448.2935,-562.7728 500.7331,403.4265 -329.9811,-630.9281 404.9387,649.1394 -57.2464,-774.3505 162.5886,751.6455 104.1713,-744.4599 -46.4057,669.7803 438.08153,-597.8241 -299.10003,630.2074 563.43966,-438.1949 -573.12866,567.65 694.43189,-263.8265 -641.37459,313.1994 779.30364,-15.0761 -748.21254,131.6732 728.09486,158.8129 -720.54996,-78.0035 611.01315,412.36579 -591.21505,-312.40269 z" />
                <path
                   transform="matrix(0.02174559,0,0,0.02060408,59.75563,1060.8369)"
                   inkscape:connector-curvature="0"
                   id="path4543-7-6-7-7-5"
                   d="m -931.6009,-793.71629 c -268.5764,115.73743 -395.1687,433.99199 -282.7432,710.819874 38.1361,93.903341 98.8924,170.973509 172.995,227.316496 l 266.26664,-347.06122 -364.59124,218.683752 366.4798,-247.261552 -418.6432,96.51483 387.07985,-142.3064 -448.30985,-19.7762 464.03615,-10.81792 -385.33395,-137.88212 409.56185,136.80517 -372.90565,-280.83291 377.56961,263.77067 -237.09776,-394.9117 227.444,299.93804 -99.53078,-351.00384 121.11392,363.83262 78.6367,-409.35391 -4.07321,461.27639 166.83132,-423.16129 -154.13609,411.04897 270.84423,-290.07629 -246.19894,326.24633 369.68571,-211.40668 -357.27484,212.50958 404.34367,-69.03989 -397.60726,118.72521 410.80839,64.05447 -418.18984,-15.25356 379.17177,125.0497 -397.84794,-115.50456 330.93152,264.678531 C -199.13361,-107.82062 -165.55237,-314.41675 -241.74159,-502.01932 -354.16704,-778.84719 -663.02454,-909.4537 -931.6009,-793.71629 Z m 183.39119,385.82759 -2.39966,12.49348 11.69521,15.40215 z m -2.39966,12.49348 -19.18348,-25.32226 14.334,50.57596 z m -16.19658,183.41695 -274.51125,356.41185 c 124.99812,95.02816 288.00169,131.05816 444.69304,89.3565 l -113.61388,-400.57186 -46.19811,408.141 30.38571,-398.63229 -165.97124,370.20243 z m 117.31408,7.3692 217.77216,347.52111 -249.07664,-315.68508 84.21715,406.54375 c 24.24231,-6.45422 48.33228,-14.75783 72.1074,-25.00322 86.45381,-37.25549 158.19112,-95.49972 211.98346,-166.584796 z"
                   style="opacity:0.533835;fill:#8ae234;fill-opacity:1;stroke:#9ee32a;stroke-width:0;stroke-linejoin:round;stroke-miterlimit:4;stroke-dasharray:none;stroke-opacity:1;filter:url(#filter4763-7-2-2)" />
                <path
                   transform="matrix(0.01591669,-0.01046282,0.00991358,0.01508117,58.282181,1051.3449)"
                   inkscape:connector-curvature="0"
                   id="path4543-7-6-8-8-3-1"
                   d="m -931.6009,-793.71629 c -268.5764,115.73743 -395.1687,433.99199 -282.7432,710.819874 38.1361,93.903341 98.8924,170.973509 172.995,227.316496 l 266.26664,-347.06122 -364.59124,218.683752 366.4798,-247.261552 -418.6432,96.51483 387.07985,-142.3064 -448.30985,-19.7762 464.03615,-10.81792 -385.33395,-137.88212 409.56185,136.80517 -372.90565,-280.83291 377.56961,263.77067 -237.09776,-394.9117 227.444,299.93804 -99.53078,-351.00384 121.11392,363.83262 78.6367,-409.35391 -4.07321,461.27639 166.83132,-423.16129 -154.13609,411.04897 270.84423,-290.07629 -246.19894,326.24633 369.68571,-211.40668 -357.27484,212.50958 404.34367,-69.03989 -397.60726,118.72521 410.80839,64.05447 -418.18984,-15.25356 379.17177,125.0497 -397.84794,-115.50456 330.93152,264.678531 C -199.13361,-107.82062 -165.55237,-314.41675 -241.74159,-502.01932 -354.16704,-778.84719 -663.02454,-909.4537 -931.6009,-793.71629 Z m 183.39119,385.82759 -2.39966,12.49348 11.69521,15.40215 z m -2.39966,12.49348 -19.18348,-25.32226 14.334,50.57596 z m -16.19658,183.41695 -274.51125,356.41185 c 124.99812,95.02816 288.00169,131.05816 444.69304,89.3565 l -113.61388,-400.57186 -46.19811,408.141 30.38571,-398.63229 -165.97124,370.20243 z m 117.31408,7.3692 217.77216,347.52111 -249.07664,-315.68508 84.21715,406.54375 c 24.24231,-6.45422 48.33228,-14.75783 72.1074,-25.00322 86.45381,-37.25549 158.19112,-95.49972 211.98346,-166.584796 z"
                   style="opacity:0.266917;fill:#322105;fill-opacity:1;stroke:#9ee32a;stroke-width:0;stroke-linejoin:round;stroke-miterlimit:4;stroke-dasharray:none;stroke-opacity:1" />
                <path
                   sodipodi:nodetypes="sccccccccccccccccccsccccccc"
                   inkscape:connector-curvature="0"
                   id="path4543-4-8-0"
                   d="m 48.050959,1043.0713 c -6.532237,-2.4188 -14.431763,1.3443 -16.861302,7.901 -0.733374,8.9621 17.967222,7.1161 0.229826,3.0907 11.237235,2.0516 11.409885,2.4117 1.481345,-3.4223 10.869612,5.0943 8.95027,3.827 1.502819,-3.7638 l 8.283305,7.4032 -4.546864,-8.6508 4.987477,9.0287 -2.060195,-10.8843 2.412598,10.6697 2.124848,-10.6079 -0.785845,8.8312 3.832528,-7.6101 -3.65891,8.1817 7.87332,-5.6913 c -8.254935,8.4876 -8.440878,8.2828 2.23999,3.311 -9.302926,4.5554 -11.138886,4.5916 0.1196,3.9702 -11.19992,1.5277 -9.799195,1.4563 0.33547,3.9765 -15.060609,-6.1156 -5.72189,15.5891 0.44227,1.2758 2.42954,-6.5567 -1.42005,-14.5902 -7.95228,-17.0092 z m -3.05837,10.167 -0.240288,0.1738 -0.04008,0.4537 z m -0.240288,0.1738 0.06667,-0.7454 c -0.174122,0.5807 -0.99689,1.4178 -0.06667,0.7454 z"
                   style="fill:url(#radialGradient3356);fill-opacity:1;stroke:#9ee32a;stroke-width:0;stroke-linejoin:round;stroke-miterlimit:4;stroke-dasharray:none;stroke-opacity:1" />
                <circle
                   id="path2996-1-6-2-7"
                   style="fill:#110f07;fill-opacity:1"
                   transform="matrix(0.03687638,0,0,0.03687638,37.709262,1049.4507)"
                   cx="170.28572"
                   cy="139.42857"
                   r="110.28571" />
                <circle
                   clip-path="none"
                   id="path2996-1-8-0-8-9-1"
                   style="fill:none;stroke:#8ae234;stroke-width:8.16855;stroke-miterlimit:4;stroke-dasharray:none;stroke-opacity:1"
                   transform="matrix(0.11339456,0,0,0.11454183,24.615535,1038.5184)"
                   cx="170.28572"
                   cy="139.42857"
                   r="110.28571" />
              </g>
            </g>
          </g>
        </g>
      </g>
      <rect
         style="fill:url(#linearGradient3375);fill-opacity:1;stroke:#ffffff;stroke-width:0.139375;stroke-opacity:1"
         id="rect3069-9-7"
         width="8.9100428"
         height="8.9100456"
         x="47.814861"
         y="281.66647" />
      <text
         xml:space="preserve"
         style="font-style:normal;font-variant:normal;font-weight:normal;font-stretch:normal;font-size:1.13166px;line-height:0%;font-family:Arial;-inkscape-font-specification:Arial;letter-spacing:0px;word-spacing:0px;fill:#ffffff;fill-opacity:1;stroke:#1c380f;stroke-width:0.0943054;stroke-opacity:1"
         x="42.360344"
         y="289.58929"
         id="text3874-1"><tspan
           sodipodi:role="line"
           id="tspan3876-0"
           x="42.360344"
           y="289.58929"
           style="font-size:6.68761px;line-height:1.25;stroke:#1c380f;stroke-width:0.0943054;stroke-opacity:1">D</tspan></text>
      <g
         id="g3206"
         transform="matrix(0.09430535,0,0,0.09430535,8.481593,242.21727)">
        <rect
           y="322.34836"
           x="321.11896"
           height="94.480812"
           width="94.480782"
           id="rect3069-92"
           style="fill:url(#linearGradient3360);fill-opacity:1;stroke:#ffffff;stroke-width:1.47791;stroke-opacity:1" />
        <text
           id="text3874"
           y="394.96973"
           x="342.961"
           style="font-style:normal;font-variant:normal;font-weight:normal;font-stretch:normal;line-height:0%;font-family:Arial;-inkscape-font-specification:Arial;letter-spacing:0px;word-spacing:0px;fill:#ffffff;fill-opacity:1;stroke:none"
           xml:space="preserve"><tspan
             y="394.96973"
             x="342.961"
             id="tspan3876"
             sodipodi:role="line"
             style="font-size:70.9144px;line-height:1.25">N</tspan></text>
        <text
           id="text4395"
           y="412.70871"
           x="323.19067"
           style="font-style:normal;font-variant:normal;font-weight:normal;font-stretch:normal;line-height:0%;font-family:Arial;-inkscape-font-specification:Arial;letter-spacing:0px;word-spacing:0px;fill:#ffffff;fill-opacity:1;stroke:none"
           xml:space="preserve"><tspan
             y="412.70871"
             x="323.19067"
             id="tspan4397"
             sodipodi:role="line"
             style="font-size:15.5638px;line-height:1.25">97</tspan></text>
      </g>
      <text
         xml:space="preserve"
         style="font-style:normal;font-variant:normal;font-weight:normal;font-stretch:normal;font-size:1.13166px;line-height:0%;font-family:Arial;-inkscape-font-specification:Arial;letter-spacing:0px;word-spacing:0px;fill:#ffffff;fill-opacity:1;stroke:none;stroke-width:0.0943054"
         x="47.994244"
         y="290.18719"
         id="text4395-4"><tspan
           sodipodi:role="line"
           id="tspan4397-7"
           x="47.994244"
           y="290.18719"
           style="font-size:1.46775px;line-height:1.25;stroke-width:0.0943054">79</tspan></text>
      <text
         xml:space="preserve"
         style="font-style:normal;font-weight:normal;font-size:1.13166px;line-height:0%;font-family:sans-serif;letter-spacing:0px;word-spacing:0px;fill:#54ac70;fill-opacity:1;stroke:#1c380f;stroke-width:0.0943054;stroke-opacity:1"
         x="39.977543"
         y="287.83176"
         id="text3188"><tspan
           sodipodi:role="line"
           id="tspan3190"
           x="39.977543"
           y="287.83176"
           style="font-size:6.40402px;line-height:1.25;font-family:sans-serif;stroke-width:0.0943054">4</tspan></text>
      <g
         transform="matrix(7.5805919e-4,0,0,-7.5805919e-4,49.317458,286.20488)"
         id="g1930"
         style="fill:#ffffff;fill-opacity:1">
        <path
           d="m 829.9,4939.3 c -108.6,-55.6 -149,-96 -204.6,-204.6 L 554.6,4600.8 V 110 -4380.8 l 70.7,-133.8 c 55.6,-108.6 96,-149 204.6,-204.6 l 133.9,-70.7 h 2649.5 c 1967.6,0 2664.7,7.6 2717.7,30.3 37.9,15.1 396.6,353.6 798.1,750.2 L 7854,-3287 v 2235.3 2235.3 L 7626.7,956.3 7399.4,729 v -1919.6 -1919.6 l -628.9,-613.8 -628.9,-611.2 -2561.1,5 -2558.6,7.6 V 110 4542.7 h 3182.5 3182.5 l 7.6,-1262.9 5,-1260.4 227.3,224.8 227.3,227.3 v 1035.6 c 0,644.1 -10.1,1070.9 -27.8,1131.5 -32.9,123.8 -159.1,265.2 -288,323.3 -96,45.5 -262.7,48 -3336.5,48 h -3238 z"
           id="path1916"
           style="fill:#ffffff;fill-opacity:1" />
        <path
           d="m 2431.3,3923.9 c -131.3,-30.3 -308.1,-149 -389,-260.1 -358.7,-495.1 15.2,-1172 618.8,-1124 184.4,15.1 323.3,80.8 447.1,214.7 154.1,161.6 186.9,245 186.9,487.5 0,189.4 -7.6,229.8 -68.2,333.4 -169.2,287.9 -482.4,424.3 -795.6,348.5 z m 320.8,-416.7 c 93.5,-48 151.5,-156.6 151.5,-282.9 0,-308.1 -437,-394 -570.8,-113.7 -123.8,262.7 159.1,530.4 419.3,396.6 z"
           id="path1918"
           style="fill:#ffffff;fill-opacity:1" />
        <path
           d="M 9142.3,3403.6 C 9122.1,3393.5 8313.9,2597.9 7346.5,1633 L 5591,-119.8 5186.9,380.3 4785.3,880.4 4674.2,888 c -85.9,7.6 -123.8,-5 -169.2,-48 -73.2,-68.2 -80.8,-209.6 -17.7,-300.6 131.3,-189.4 944.6,-1182.1 980,-1197.2 22.7,-7.6 78.3,-15.1 121.2,-15.1 73.3,0 260.1,179.3 1970.1,1889.3 1707.4,1707.3 1886.8,1894.2 1886.8,1967.5 0,143.9 -171.8,267.7 -303.1,219.7 z"
           id="path1920"
           style="fill:#ffffff;fill-opacity:1" />
        <path
           d="m 4436.8,3148.5 c -10.1,-7.6 -17.7,-98.5 -17.7,-202.1 V 2762 H 5682 6944.9 v 202.1 202.1 H 5699.6 c -687,0 -1255.3,-7.6 -1262.8,-17.7 z"
           id="path1922"
           style="fill:#ffffff;fill-opacity:1" />
        <path
           d="m 2087.8,2398.4 c -250.1,-103.6 -391.5,-240 -502.6,-485 -48,-106.1 -58.1,-176.8 -65.7,-507.7 l -10.1,-386.4 H 2598 3686.6 v 373.8 c -2.5,285.4 -12.6,399.1 -45.5,490 -93.5,257.6 -295.5,449.6 -563.3,538 L 2954,2464 2850.4,2383.2 c -65.7,-53 -138.9,-85.9 -207.1,-93.5 -90.9,-10.1 -123.8,0 -237.4,78.3 -73.2,50.5 -141.4,90.9 -151.5,90.9 -12.6,0.1 -85.8,-27.7 -166.6,-60.5 z m 224.8,-449.6 c 171.7,-75.8 431.9,-75.8 603.7,0 121.2,55.6 126.3,55.6 186.9,10.1 35.4,-25.3 83.4,-73.3 108.6,-108.6 48,-65.7 108.6,-333.4 85.9,-391.5 -10.1,-30.3 -133.9,-35.4 -697.1,-35.4 h -682 v 123.8 c 0,68.2 12.6,156.6 27.8,197 25.3,68.2 192,260.1 227.3,260.1 7.5,0 70.7,-25.2 138.9,-55.5 z"
           id="path1924"
           style="fill:#ffffff;fill-opacity:1" />
        <path
           d="m 1463.9,-1607.5 v -202.1 l 2735.4,5.1 2732.9,7.6 7.6,197 7.6,194.5 h -2743 -2740.5 z"
           id="path1926"
           style="fill:#ffffff;fill-opacity:1" />
        <path
           d="m 1463.9,-2971.5 v -202.1 h 2740.5 2740.5 v 202.1 202.1 H 4204.4 1463.9 Z"
           id="path1928"
           style="fill:#ffffff;fill-opacity:1" />
      </g>
    </g>
  </g>
</svg>
